<svg xmlns="http://www.w3.org/2000/svg" width="36" height="36" viewBox="0 0 36 36"><g><path fill="#fff" d="M17.617 9.078c4.97 0 9.012 4.043 9.012 9.012 0 4.97-4.044 9.012-9.013 9.012S8.605 23.06 8.605 18.09c0-4.97 4.042-9.012 9.012-9.012m0-1c-5.53 0-10.012 4.483-10.012 10.012 0 5.53 4.48 10.012 10.012 10.012S27.63 23.62 27.63 18.09 23.146 8.078 17.616 8.078zM16.354 22.143h2.66v2.57h-2.66zM21.55 17.223c-.224.32-.655.73-1.296 1.23l-.63.487c-.343.268-.57.578-.682.935-.07.226-.11.575-.116 1.05h-2.41c.036-1.002.13-1.694.282-2.077.154-.382.55-.823 1.19-1.32l.646-.51c.213-.158.386-.333.515-.522.236-.326.353-.686.353-1.077 0-.452-.13-.863-.395-1.234s-.744-.557-1.44-.557c-.69 0-1.174.228-1.462.685-.287.457-.43.93-.43 1.423h-2.57c.07-1.69.66-2.888 1.77-3.594.7-.45 1.56-.676 2.58-.676 1.34 0 2.454.32 3.34.96.887.64 1.33 1.59 1.33 2.847 0 .77-.19 1.42-.576 1.948z"/></g></svg>